<svg id="raw_copy" data-name="raw copy" xmlns="http://www.w3.org/2000/svg" viewBox="0 0 980 980">
  <defs>
    <style>
      .cls-1 {
        fill: #f43b3b;
      }

      .cls-2 {
        fill: #f7a4a4;
      }
    </style>
  </defs>
  <path class="cls-1" d="M344.28,509.44q.75,5.73,1.94,11.31h0Q345,515.17,344.28,509.44Zm289.49,11.31h0q1.19-5.58,1.94-11.31Q635,515.17,633.77,520.75Z"/>
  <path class="cls-2" d="M490,0C219.38,0,0,219.38,0,490S219.38,980,490,980,980,760.62,980,490,760.62,0,490,0Zm0,343A147,147,0,0,1,637,490q0,3-.12,5.91,0,1-.09,1.95l-.09,1.58c0,.62-.08,1.25-.13,1.87l-.09,1.11c0,.42-.07.84-.11,1.26-.12,1.29-.26,2.57-.41,3.85-.07.64-.15,1.28-.24,1.91q-.75,5.73-1.94,11.31a147,147,0,0,1-287.56,0q-1.19-5.58-1.94-11.31c-.09-.63-.17-1.27-.24-1.91-.15-1.28-.29-2.56-.41-3.85,0-.42-.08-.84-.11-1.26l-.09-1.11c-.05-.62-.09-1.25-.13-1.87l-.09-1.58q-.06-1-.09-1.95Q343,493,343,490A147,147,0,0,1,490,343ZM784.16,784.16a415.86,415.86,0,0,1-709-263.41h205.1a212,212,0,0,0,419.58,0h205.1A414.38,414.38,0,0,1,784.16,784.16Z"/>
</svg>
