<svg id="search" xmlns="http://www.w3.org/2000/svg" viewBox="0 0 707.58 754.48">
  <defs>
    <style>
      .cls-1 {
        fill: #f43b3b;
      }
    </style>
  </defs>
  <path class="cls-1" d="M834.71,812l-200.9-200.9A290.79,290.79,0,0,0,719.6,404.46c0-161.1-130.59-291.7-291.69-291.7s-291.7,130.6-291.7,291.7,130.6,291.69,291.7,291.69A290.3,290.3,0,0,0,582.33,652L788.52,858.16a31,31,0,0,0,43.84,0l2.35-2.35A31,31,0,0,0,834.71,812ZM427.91,655.76c-138.79,0-251.31-112.51-251.31-251.31s112.52-251.3,251.31-251.3,251.3,112.51,251.3,251.3S566.7,655.76,427.91,655.76Z" transform="translate(-136.21 -112.76)"/>
</svg>
